# xmcd
#
# Track frame offsets: 
#        187
#        11884
#        24142
#        42237
#        54017
#        66717
#        81492
#        95582
#        108187
#        119892
#        133237
#        145182
#        158037
#        175344
#        187499
#        199167
#        212629
#        225719
#        240109
#        253869
#        269094
#        280409
#        296832
#        312329
#        323297
#
# Disc length: 4577 seconds
#
# Revision: 8
# Processed by: cddbd v1.5.2PL0 Copyright (c) Steve Scherf et al.
# Submitted via: ExactAudioCopy v1.0b6
#
DISCID=8111df19
DTITLE=Paul Mauriat - Adagio
DYEAR=1996
DGENRE=Miscellaneous
TTITLE0=El Bimbo
TTITLE1=Toccata
TTITLE2=Penelope
TTITLE3=Love Is Blue
TTITLE4=Nocturne
TTITLE5=Pearl Fisher
TTITLE6=La Reine De Saba
TTITLE7=Jamais Je Ne Vivrai Sans Toi
TTITLE8=Catherine
TTITLE9=Tombe La Neige
TTITLE10=Holidays
TTITLE11=Mamy Blue
TTITLE12=Yesterday Once More
TTITLE13=Donne Ton Coeur, Donne Tavie
TTITLE14=Aquarius (Version '69)
TTITLE15=Petite Melodie
TTITLE16=Inch Allah
TTITLE17=El Condor Pasa
TTITLE18=Le Temps Des Fleurs
TTITLE19=Feelings
TTITLE20=Ebb Tide
TTITLE21=Petalhos De Cetim
TTITLE22=I Left My Heart In San Francisco
TTITLE23=Il N'Y A Pas De Fumee Sans Feu
TTITLE24=Bridge Over Troubled Water - Let It Be
EXTD=
EXTT0=
EXTT1=
EXTT2=
EXTT3=
EXTT4=
EXTT5=
EXTT6=
EXTT7=
EXTT8=
EXTT9=
EXTT10=
EXTT11=
EXTT12=
EXTT13=
EXTT14=
EXTT15=
EXTT16=
EXTT17=
EXTT18=
EXTT19=
EXTT20=
EXTT21=
EXTT22=
EXTT23=
EXTT24=
PLAYORDER=
